P1
32 27
00000000000000000000000000000000
00000000000000000000000000000000
00000000000000000000000000000000
00000000000000000000000000000000
00000000000000000000000000000000
00000000000000000000000000000000
00000010000000000000000001000000
00000010000000000000000000100000
00000100010000000000000100010000
00001000100000000000000100010000
00000000100100000000100010000000
00001001000100001000010010001000
00001001000000100100010001001000
00000000001100100010000000001000
00010001000000100010010001000000
00001001001000100010001001001000
00001000000100011000010010001000
00001000100100000000100010000000
00000000100000000000000000010000
00000100010000000000000100010000
00000100000000000000000000100000
00000011000000000000000001000000
00000000000000000000000001000000
00000000000000000000000000000000
00000000000000000000000000000000
00000000000000000000000000000000
00000000000000000000000000000000
